<?xml version="1.0" standalone="no"?>
<!DOCTYPE svg PUBLIC "-//W3C//DTD SVG 20010904//EN"
 "http://www.w3.org/TR/2001/REC-SVG-20010904/DTD/svg10.dtd">
<svg version="1.0" xmlns="http://www.w3.org/2000/svg"
 width="2460.000000pt" height="936.000000pt" viewBox="0 0 2460.000000 936.000000"
 preserveAspectRatio="xMidYMid meet">
<metadata>
</metadata>
<g transform="translate(0.000000,936.000000) scale(0.100000,-0.100000)"
fill="#315AF2" stroke="none">
<path d="M3960 4710 l0 -1550 310 0 310 0 2 622 3 622 485 -622 485 -622 414
0 413 0 -44 53 c-224 265 -1068 1279 -1068 1283 0 3 228 247 508 542 279 296
513 545 521 555 13 16 -8 17 -385 17 l-399 0 -465 -501 -465 -500 -3 825 -2
826 -310 0 -310 0 0 -1550z"/>
<path d="M11120 5778 l0 -482 -52 58 c-135 151 -363 270 -590 306 -126 20
-380 8 -503 -24 -133 -35 -317 -126 -422 -210 -290 -231 -462 -619 -463 -1043
-1 -454 185 -851 500 -1072 182 -128 367 -192 602 -210 414 -31 747 106 931
384 l27 40 0 -183 0 -182 295 0 295 0 0 1550 0 1550 -310 0 -310 0 0 -482z
m-464 -702 c143 -46 289 -161 372 -292 45 -71 88 -194 103 -293 21 -150 -3
-304 -71 -446 -87 -180 -253 -316 -447 -366 -98 -25 -262 -27 -360 -4 -224 51
-424 235 -497 456 -57 173 -58 335 -2 501 78 233 272 409 511 464 99 22 292
13 391 -20z"/>
<path d="M12130 4710 l0 -1550 310 0 310 0 0 1550 0 1550 -310 0 -310 0 0
-1550z"/>
<path d="M20020 5778 l0 -482 -52 58 c-135 151 -363 270 -590 306 -126 20
-380 8 -503 -24 -133 -35 -317 -126 -422 -210 -290 -231 -462 -619 -463 -1043
-1 -454 185 -851 500 -1072 182 -128 367 -192 602 -210 414 -31 747 106 931
384 l27 40 0 -183 0 -182 295 0 295 0 0 1550 0 1550 -310 0 -310 0 0 -482z
m-464 -702 c143 -46 289 -161 372 -292 45 -71 88 -194 103 -293 21 -150 -3
-304 -71 -446 -87 -180 -253 -316 -447 -366 -98 -25 -262 -27 -360 -4 -224 51
-424 235 -497 456 -57 173 -58 335 -2 501 78 233 272 409 511 464 99 22 292
13 391 -20z"/>
<path d="M7325 5664 c-428 -64 -745 -257 -948 -576 -235 -370 -262 -882 -68
-1283 176 -361 500 -602 921 -685 96 -18 281 -27 400 -19 191 13 343 52 506
128 143 68 245 140 354 250 240 241 359 542 360 904 0 355 -126 673 -360 907
-178 179 -380 287 -655 351 -71 16 -132 21 -285 24 -107 2 -208 1 -225 -1z
m421 -588 c143 -46 289 -161 372 -292 45 -71 88 -194 103 -293 21 -150 -3
-304 -71 -446 -87 -180 -253 -316 -447 -366 -98 -25 -262 -27 -360 -4 -224 51
-424 235 -497 456 -57 173 -58 335 -2 501 78 233 272 409 511 464 99 22 292
13 391 -20z"/>
<path d="M13990 5664 c-257 -32 -491 -114 -659 -231 -79 -55 -181 -144 -181
-158 0 -6 72 -82 159 -169 l160 -159 36 29 c201 160 380 225 617 225 129 0
232 -22 326 -68 157 -77 232 -202 232 -383 l0 -60 -162 0 c-581 0 -966 -78
-1218 -245 -132 -88 -244 -241 -285 -390 -25 -92 -30 -284 -11 -375 80 -377
492 -621 979 -579 287 24 516 141 649 331 l43 61 3 -166 2 -167 281 0 280 0
-3 858 c-4 934 -3 908 -64 1090 -94 283 -310 460 -654 537 -73 16 -443 29
-530 19z m656 -1537 c-7 -143 -24 -217 -69 -301 -91 -172 -266 -259 -522 -259
-177 -1 -280 36 -372 131 -68 72 -88 159 -58 260 56 188 347 287 859 291 l169
1 -7 -123z"/>
<path d="M16675 5663 c-72 -11 -155 -37 -220 -68 -119 -57 -256 -190 -330
-320 l-35 -60 0 198 0 197 -295 0 -295 0 0 -1225 0 -1225 309 0 310 0 4 728
c5 807 4 796 72 940 66 139 200 243 353 272 36 8 103 11 160 8 122 -6 186 -34
261 -113 58 -62 91 -125 123 -241 22 -78 22 -90 26 -836 l3 -758 315 0 314 0
0 758 c-1 770 -6 944 -36 1087 -56 272 -212 476 -450 587 -119 56 -191 69
-384 73 -96 2 -188 1 -205 -2z"/>
</g>
</svg>
