<svg width="20" height="17" viewBox="0 0 20 17" fill="none" xmlns="http://www.w3.org/2000/svg">
<line x1="5" y1="2" x2="19" y2="2" stroke="black" stroke-width="2" stroke-linecap="round"/>
<line x1="5" y1="14" x2="19" y2="14" stroke="black" stroke-width="2" stroke-linecap="round"/>
<line x1="5" y1="8" x2="19" y2="8" stroke="black" stroke-width="2" stroke-linecap="round"/>
<path d="M0.78 1.565V3.77C0.78 3.895 0.885 4 1.01 4H1.3C1.425 4 1.53 3.895 1.53 3.77V0.73C1.53 0.605 1.425 0.5 1.3 0.5H1.11C1.005 0.5 0.935 0.54 0.855 0.6L0.195 1.08C0.13 1.125 0.095 1.195 0.095 1.27C0.095 1.315 0.11 1.365 0.14 1.405L0.295 1.62C0.34 1.685 0.415 1.72 0.485 1.72C0.535 1.72 0.58 1.705 0.62 1.675L0.78 1.565Z" fill="black"/>
<path d="M2.395 9.53C2.395 9.405 2.29 9.3 2.165 9.3H1.105C1.365 9.1 2.275 8.39 2.275 7.405C2.275 6.91 1.925 6.46 1.245 6.46C0.71 6.46 0.325 6.71 0.15 7.14C0.135 7.17 0.13 7.205 0.13 7.235C0.13 7.32 0.18 7.395 0.255 7.43L0.495 7.53C0.545 7.55 0.585 7.56 0.625 7.56C0.715 7.56 0.78 7.505 0.845 7.405C0.92 7.29 1.025 7.21 1.155 7.21C1.355 7.21 1.475 7.305 1.475 7.555C1.475 8.13 0.81 8.75 0.255 9.285C0.18 9.355 0.135 9.42 0.135 9.52V9.77C0.135 9.895 0.24 10 0.365 10H2.165C2.29 10 2.395 9.895 2.395 9.77V9.53Z" fill="black"/>
<path d="M1.21 12.44C0.85 12.44 0.55 12.565 0.265 12.785C0.21 12.825 0.18 12.895 0.18 12.965C0.18 13.015 0.195 13.07 0.225 13.11L0.345 13.28C0.395 13.35 0.465 13.385 0.54 13.385C0.59 13.385 0.64 13.37 0.685 13.345C0.84 13.25 0.99 13.19 1.14 13.19C1.375 13.19 1.46 13.335 1.46 13.485C1.46 13.725 1.245 13.835 0.98 13.835C0.87 13.835 0.78 13.925 0.78 14.03V14.37C0.78 14.49 0.875 14.585 1 14.585C1.39 14.585 1.595 14.705 1.595 14.97C1.595 15.15 1.46 15.31 1.155 15.31C1.005 15.31 0.825 15.225 0.635 15.075C0.58 15.03 0.52 15.01 0.465 15.01C0.4 15.01 0.34 15.035 0.285 15.09L0.115 15.26C0.07 15.305 0.05 15.37 0.05 15.435C0.05 15.49 0.065 15.55 0.105 15.59C0.43 15.935 0.77 16.06 1.205 16.06C1.875 16.06 2.395 15.66 2.395 15C2.395 14.58 2.17 14.255 1.74 14.16C2.09 13.995 2.26 13.75 2.26 13.335C2.26 12.785 1.825 12.44 1.21 12.44Z" fill="black"/>
</svg>