<svg width="16" height="20" viewBox="0 0 16 20" fill="none" xmlns="http://www.w3.org/2000/svg">
<path d="M10.82 11.58L11.98 14.4C12.14 14.8 12.5 15.16 13.18 15.16C13.8 15.16 14.32 14.66 14.32 14.04C14.32 13.88 14.28 13.72 14.22 13.56L9.26 1.9C9.06 1.44 8.68 0.899999 7.92 0.899999C7.12 0.899999 6.74 1.44 6.54 1.9L1.56 13.6C1.5 13.74 1.46 13.9 1.46 14.04C1.46 14.64 1.94 15.16 2.6 15.16C3.08 15.16 3.48 14.94 3.66 14.48L4.84 11.58H10.82ZM7.84 4.26L9.88 9.28H5.78L7.84 4.26Z" fill="black"/>
<line x1="1.5" y1="18.5" x2="14.5" y2="18.5" stroke="black" stroke-width="3" stroke-linecap="round"/>
</svg>