<svg width="22" height="22" viewBox="0 0 22 22" fill="none" xmlns="http://www.w3.org/2000/svg">
<path d="M20.9998 0H12.9998C12.4476 0 11.9998 0.447734 11.9998 1.00001C11.9998 1.55229 12.4476 2.00002 12.9998 2.00002H18.5856L8.29279 12.2929C7.90224 12.6835 7.90224 13.3166 8.29279 13.7071C8.48799 13.9024 8.74391 14 8.99984 14C9.25576 14 9.51172 13.9024 9.70697 13.7071L19.9999 3.41421V9.00002C19.9999 9.5523 20.4476 10 20.9999 10C21.5522 10 21.9999 9.5523 21.9999 9.00002V1.00001C21.9999 0.447734 21.5521 0 20.9998 0Z" fill="black"/>
<path d="M17 9.99998C16.4477 9.99998 16 10.4477 16 11V20H1.99998V5.99998H11C11.5523 5.99998 12 5.55225 12 4.99997C12 4.44769 11.5523 4 11 4H1.00001C0.447734 4 0 4.44773 0 5.00001V21C0 21.5523 0.447734 22 1.00001 22H17C17.5523 22 18 21.5523 18 21V11C18 10.4477 17.5523 9.99998 17 9.99998Z" fill="black"/>
</svg>